<mxfile host="app.diagrams.net" modified="2023-05-08T19:30:11.077Z" agent="Mozilla/5.0 (Windows NT 10.0; Win64; x64; rv:109.0) Gecko/20100101 Firefox/112.0" etag="XnLOEggvrsyC3FogqbUE" version="21.2.9">
  <diagram name="Page-1" id="CWH5NlU9q9CjvMd9MiRt">
    <mxGraphModel dx="1195" dy="652" grid="1" gridSize="10" guides="1" tooltips="1" connect="1" arrows="1" fold="1" page="1" pageScale="1" pageWidth="850" pageHeight="1100" math="0" shadow="0">
      <root>
        <mxCell id="0" />
        <mxCell id="1" parent="0" />
        <mxCell id="TSLGlhMcsG2Oh3ILdl1S-78" value="" style="rounded=0;whiteSpace=wrap;html=1;fillColor=none;" vertex="1" parent="1">
          <mxGeometry x="370" y="276" width="140" height="80" as="geometry" />
        </mxCell>
        <mxCell id="TSLGlhMcsG2Oh3ILdl1S-77" value="" style="rounded=0;whiteSpace=wrap;html=1;fillColor=none;" vertex="1" parent="1">
          <mxGeometry x="370" y="196" width="140" height="80" as="geometry" />
        </mxCell>
        <mxCell id="TSLGlhMcsG2Oh3ILdl1S-27" value="" style="rounded=0;whiteSpace=wrap;html=1;fillColor=none;" vertex="1" parent="1">
          <mxGeometry x="180" y="90" width="360" height="320" as="geometry" />
        </mxCell>
        <mxCell id="TSLGlhMcsG2Oh3ILdl1S-68" value="" style="rounded=0;whiteSpace=wrap;html=1;fillColor=none;" vertex="1" parent="1">
          <mxGeometry x="370" y="116" width="140" height="240" as="geometry" />
        </mxCell>
        <mxCell id="TSLGlhMcsG2Oh3ILdl1S-54" style="rounded=0;orthogonalLoop=1;jettySize=auto;html=1;entryX=-0.014;entryY=0.841;entryDx=0;entryDy=0;exitX=1.025;exitY=0.363;exitDx=0;exitDy=0;exitPerimeter=0;fillColor=#dae8fc;strokeColor=#6c8ebf;entryPerimeter=0;" edge="1" parent="1" source="TSLGlhMcsG2Oh3ILdl1S-17" target="TSLGlhMcsG2Oh3ILdl1S-18">
          <mxGeometry relative="1" as="geometry" />
        </mxCell>
        <mxCell id="TSLGlhMcsG2Oh3ILdl1S-55" style="rounded=0;orthogonalLoop=1;jettySize=auto;html=1;entryX=0.014;entryY=0.613;entryDx=0;entryDy=0;entryPerimeter=0;exitX=1.025;exitY=0.375;exitDx=0;exitDy=0;exitPerimeter=0;fillColor=#dae8fc;strokeColor=#6c8ebf;" edge="1" parent="1" source="TSLGlhMcsG2Oh3ILdl1S-17" target="TSLGlhMcsG2Oh3ILdl1S-19">
          <mxGeometry relative="1" as="geometry" />
        </mxCell>
        <mxCell id="TSLGlhMcsG2Oh3ILdl1S-56" style="rounded=0;orthogonalLoop=1;jettySize=auto;html=1;entryX=0;entryY=0.5;entryDx=0;entryDy=0;fillColor=#dae8fc;strokeColor=#6c8ebf;" edge="1" parent="1">
          <mxGeometry relative="1" as="geometry">
            <mxPoint x="121.25" y="360.53271028037375" as="sourcePoint" />
            <mxPoint x="220" y="331" as="targetPoint" />
          </mxGeometry>
        </mxCell>
        <mxCell id="TSLGlhMcsG2Oh3ILdl1S-17" value="" style="rounded=0;whiteSpace=wrap;html=1;fillColor=none;" vertex="1" parent="1">
          <mxGeometry x="51.25" y="330" width="70" height="80" as="geometry" />
        </mxCell>
        <mxCell id="TSLGlhMcsG2Oh3ILdl1S-57" style="rounded=0;orthogonalLoop=1;jettySize=auto;html=1;entryX=0.018;entryY=0.62;entryDx=0;entryDy=0;exitX=1;exitY=0.5;exitDx=0;exitDy=0;fillColor=#d5e8d4;strokeColor=#82b366;entryPerimeter=0;" edge="1" parent="1" source="TSLGlhMcsG2Oh3ILdl1S-16" target="TSLGlhMcsG2Oh3ILdl1S-18">
          <mxGeometry relative="1" as="geometry">
            <mxPoint x="130" y="290" as="sourcePoint" />
          </mxGeometry>
        </mxCell>
        <mxCell id="TSLGlhMcsG2Oh3ILdl1S-58" style="rounded=0;orthogonalLoop=1;jettySize=auto;html=1;entryX=-0.031;entryY=0.548;entryDx=0;entryDy=0;entryPerimeter=0;exitX=1;exitY=0.5;exitDx=0;exitDy=0;fillColor=#d5e8d4;strokeColor=#82b366;" edge="1" parent="1" source="TSLGlhMcsG2Oh3ILdl1S-16" target="TSLGlhMcsG2Oh3ILdl1S-19">
          <mxGeometry relative="1" as="geometry" />
        </mxCell>
        <mxCell id="TSLGlhMcsG2Oh3ILdl1S-59" style="rounded=0;orthogonalLoop=1;jettySize=auto;html=1;entryX=0.01;entryY=0.441;entryDx=0;entryDy=0;entryPerimeter=0;exitX=1;exitY=0.5;exitDx=0;exitDy=0;fillColor=#d5e8d4;strokeColor=#82b366;" edge="1" parent="1" source="TSLGlhMcsG2Oh3ILdl1S-16" target="TSLGlhMcsG2Oh3ILdl1S-20">
          <mxGeometry relative="1" as="geometry" />
        </mxCell>
        <mxCell id="TSLGlhMcsG2Oh3ILdl1S-16" value="" style="rounded=0;whiteSpace=wrap;html=1;fillColor=none;" vertex="1" parent="1">
          <mxGeometry x="51" y="250" width="70" height="80" as="geometry" />
        </mxCell>
        <mxCell id="TSLGlhMcsG2Oh3ILdl1S-63" style="rounded=0;orthogonalLoop=1;jettySize=auto;html=1;entryX=-0.006;entryY=0.455;entryDx=0;entryDy=0;entryPerimeter=0;fillColor=#fff2cc;strokeColor=#d6b656;exitX=1;exitY=0.5;exitDx=0;exitDy=0;" edge="1" parent="1" source="TSLGlhMcsG2Oh3ILdl1S-7" target="TSLGlhMcsG2Oh3ILdl1S-18">
          <mxGeometry relative="1" as="geometry" />
        </mxCell>
        <mxCell id="TSLGlhMcsG2Oh3ILdl1S-64" style="rounded=0;orthogonalLoop=1;jettySize=auto;html=1;entryX=0.002;entryY=0.548;entryDx=0;entryDy=0;entryPerimeter=0;fillColor=#fff2cc;strokeColor=#d6b656;exitX=1;exitY=0.5;exitDx=0;exitDy=0;" edge="1" parent="1" source="TSLGlhMcsG2Oh3ILdl1S-7" target="TSLGlhMcsG2Oh3ILdl1S-19">
          <mxGeometry relative="1" as="geometry" />
        </mxCell>
        <mxCell id="TSLGlhMcsG2Oh3ILdl1S-65" style="rounded=0;orthogonalLoop=1;jettySize=auto;html=1;entryX=-0.031;entryY=0.434;entryDx=0;entryDy=0;entryPerimeter=0;fillColor=#fff2cc;strokeColor=#d6b656;exitX=1;exitY=0.5;exitDx=0;exitDy=0;" edge="1" parent="1" source="TSLGlhMcsG2Oh3ILdl1S-7" target="TSLGlhMcsG2Oh3ILdl1S-20">
          <mxGeometry relative="1" as="geometry" />
        </mxCell>
        <mxCell id="TSLGlhMcsG2Oh3ILdl1S-7" value="" style="rounded=0;whiteSpace=wrap;html=1;fillColor=none;" vertex="1" parent="1">
          <mxGeometry x="51" y="90" width="70" height="80" as="geometry" />
        </mxCell>
        <mxCell id="TSLGlhMcsG2Oh3ILdl1S-2" value="" style="points=[[0.13,0.02,0],[0.5,0,0],[0.87,0.02,0],[0.885,0.4,0],[0.985,0.985,0],[0.5,1,0],[0.015,0.985,0],[0.115,0.4,0]];verticalLabelPosition=bottom;sketch=0;html=1;verticalAlign=top;aspect=fixed;align=center;pointerEvents=1;shape=mxgraph.cisco19.laptop;fillColor=#005073;strokeColor=none;" vertex="1" parent="1">
          <mxGeometry x="60" y="190" width="50" height="35" as="geometry" />
        </mxCell>
        <mxCell id="TSLGlhMcsG2Oh3ILdl1S-4" value="" style="points=[[0.22,0.185,0],[0.5,0,0],[0.78,0.185,0],[0.975,0.49,0],[1,0.73,0],[0.975,0.97,0],[0.5,1,0],[0.025,0.97,0],[0,0.73,0],[0.025,0.49,0]];verticalLabelPosition=bottom;sketch=0;html=1;verticalAlign=top;aspect=fixed;align=center;pointerEvents=1;shape=mxgraph.cisco19.printer;fillColor=#005073;strokeColor=none;" vertex="1" parent="1">
          <mxGeometry x="61.25" y="260" width="50" height="45" as="geometry" />
        </mxCell>
        <mxCell id="TSLGlhMcsG2Oh3ILdl1S-5" value="" style="image;aspect=fixed;perimeter=ellipsePerimeter;html=1;align=center;shadow=0;dashed=0;spacingTop=3;image=img/lib/active_directory/firewall.svg;" vertex="1" parent="1">
          <mxGeometry x="70.75" y="345" width="30.5" height="50" as="geometry" />
        </mxCell>
        <mxCell id="TSLGlhMcsG2Oh3ILdl1S-6" value="" style="image;aspect=fixed;perimeter=ellipsePerimeter;html=1;align=center;shadow=0;dashed=0;spacingTop=3;image=img/lib/active_directory/generic_server.svg;" vertex="1" parent="1">
          <mxGeometry x="71" y="100" width="28.000000000000004" height="50" as="geometry" />
        </mxCell>
        <mxCell id="TSLGlhMcsG2Oh3ILdl1S-8" value="&lt;b&gt;Instances&lt;/b&gt;" style="text;html=1;strokeColor=none;fillColor=none;align=center;verticalAlign=middle;whiteSpace=wrap;rounded=0;" vertex="1" parent="1">
          <mxGeometry x="55" y="410" width="60" height="30" as="geometry" />
        </mxCell>
        <mxCell id="TSLGlhMcsG2Oh3ILdl1S-9" value="Server" style="text;html=1;strokeColor=none;fillColor=none;align=center;verticalAlign=middle;whiteSpace=wrap;rounded=0;" vertex="1" parent="1">
          <mxGeometry x="56.25" y="140" width="60" height="30" as="geometry" />
        </mxCell>
        <mxCell id="TSLGlhMcsG2Oh3ILdl1S-10" value="Workstation" style="text;html=1;strokeColor=none;fillColor=none;align=center;verticalAlign=middle;whiteSpace=wrap;rounded=0;" vertex="1" parent="1">
          <mxGeometry x="55" y="220" width="60" height="30" as="geometry" />
        </mxCell>
        <mxCell id="TSLGlhMcsG2Oh3ILdl1S-11" value="Printer" style="text;html=1;strokeColor=none;fillColor=none;align=center;verticalAlign=middle;whiteSpace=wrap;rounded=0;" vertex="1" parent="1">
          <mxGeometry x="59" y="299" width="60" height="30" as="geometry" />
        </mxCell>
        <mxCell id="TSLGlhMcsG2Oh3ILdl1S-13" value="Firewall" style="text;html=1;strokeColor=none;fillColor=none;align=center;verticalAlign=middle;whiteSpace=wrap;rounded=0;" vertex="1" parent="1">
          <mxGeometry x="56.25" y="384" width="60" height="30" as="geometry" />
        </mxCell>
        <mxCell id="TSLGlhMcsG2Oh3ILdl1S-60" style="rounded=0;orthogonalLoop=1;jettySize=auto;html=1;entryX=0;entryY=0.5;entryDx=0;entryDy=0;exitX=1;exitY=0.5;exitDx=0;exitDy=0;fillColor=#f8cecc;strokeColor=#b85450;" edge="1" parent="1" source="TSLGlhMcsG2Oh3ILdl1S-15" target="TSLGlhMcsG2Oh3ILdl1S-18">
          <mxGeometry relative="1" as="geometry" />
        </mxCell>
        <mxCell id="TSLGlhMcsG2Oh3ILdl1S-61" style="rounded=0;orthogonalLoop=1;jettySize=auto;html=1;entryX=0;entryY=0.5;entryDx=0;entryDy=0;exitX=1;exitY=0.5;exitDx=0;exitDy=0;fillColor=#f8cecc;strokeColor=#b85450;" edge="1" parent="1" source="TSLGlhMcsG2Oh3ILdl1S-15" target="TSLGlhMcsG2Oh3ILdl1S-19">
          <mxGeometry relative="1" as="geometry" />
        </mxCell>
        <mxCell id="TSLGlhMcsG2Oh3ILdl1S-62" style="rounded=0;orthogonalLoop=1;jettySize=auto;html=1;entryX=-0.047;entryY=0.355;entryDx=0;entryDy=0;exitX=1;exitY=0.5;exitDx=0;exitDy=0;fillColor=#f8cecc;strokeColor=#b85450;entryPerimeter=0;" edge="1" parent="1" source="TSLGlhMcsG2Oh3ILdl1S-15" target="TSLGlhMcsG2Oh3ILdl1S-20">
          <mxGeometry relative="1" as="geometry" />
        </mxCell>
        <mxCell id="TSLGlhMcsG2Oh3ILdl1S-15" value="" style="rounded=0;whiteSpace=wrap;html=1;fillColor=none;" vertex="1" parent="1">
          <mxGeometry x="51.25" y="170" width="70" height="80" as="geometry" />
        </mxCell>
        <mxCell id="TSLGlhMcsG2Oh3ILdl1S-69" style="edgeStyle=orthogonalEdgeStyle;rounded=0;orthogonalLoop=1;jettySize=auto;html=1;entryX=0;entryY=0.5;entryDx=0;entryDy=0;" edge="1" parent="1" source="TSLGlhMcsG2Oh3ILdl1S-18" target="TSLGlhMcsG2Oh3ILdl1S-76">
          <mxGeometry relative="1" as="geometry" />
        </mxCell>
        <mxCell id="TSLGlhMcsG2Oh3ILdl1S-18" value="" style="rounded=0;whiteSpace=wrap;html=1;fillColor=none;" vertex="1" parent="1">
          <mxGeometry x="220" y="116" width="70" height="80" as="geometry" />
        </mxCell>
        <mxCell id="TSLGlhMcsG2Oh3ILdl1S-70" style="edgeStyle=orthogonalEdgeStyle;rounded=0;orthogonalLoop=1;jettySize=auto;html=1;entryX=0;entryY=0.5;entryDx=0;entryDy=0;" edge="1" parent="1" source="TSLGlhMcsG2Oh3ILdl1S-19" target="TSLGlhMcsG2Oh3ILdl1S-77">
          <mxGeometry relative="1" as="geometry" />
        </mxCell>
        <mxCell id="TSLGlhMcsG2Oh3ILdl1S-19" value="" style="rounded=0;whiteSpace=wrap;html=1;fillColor=none;" vertex="1" parent="1">
          <mxGeometry x="220" y="196" width="70" height="80" as="geometry" />
        </mxCell>
        <mxCell id="TSLGlhMcsG2Oh3ILdl1S-71" style="edgeStyle=orthogonalEdgeStyle;rounded=0;orthogonalLoop=1;jettySize=auto;html=1;entryX=0;entryY=0.5;entryDx=0;entryDy=0;" edge="1" parent="1" source="TSLGlhMcsG2Oh3ILdl1S-20" target="TSLGlhMcsG2Oh3ILdl1S-78">
          <mxGeometry relative="1" as="geometry" />
        </mxCell>
        <mxCell id="TSLGlhMcsG2Oh3ILdl1S-20" value="" style="rounded=0;whiteSpace=wrap;html=1;fillColor=none;" vertex="1" parent="1">
          <mxGeometry x="220" y="276" width="70" height="80" as="geometry" />
        </mxCell>
        <mxCell id="TSLGlhMcsG2Oh3ILdl1S-23" value="" style="shape=image;html=1;verticalAlign=top;verticalLabelPosition=bottom;labelBackgroundColor=#ffffff;imageAspect=0;aspect=fixed;image=https://cdn2.iconfinder.com/data/icons/competitive-strategy-and-corporate-training/512/736_Efficiency_management_processing_productivity_project_Business_Management-128.png" vertex="1" parent="1">
          <mxGeometry x="230" y="126" width="50" height="50" as="geometry" />
        </mxCell>
        <mxCell id="TSLGlhMcsG2Oh3ILdl1S-25" value="" style="verticalLabelPosition=bottom;sketch=0;aspect=fixed;html=1;verticalAlign=top;strokeColor=none;align=center;outlineConnect=0;shape=mxgraph.citrix.process;" vertex="1" parent="1">
          <mxGeometry x="230" y="285" width="42" height="50.08" as="geometry" />
        </mxCell>
        <mxCell id="TSLGlhMcsG2Oh3ILdl1S-26" value="&lt;b&gt;Jobs&lt;/b&gt;" style="text;html=1;strokeColor=none;fillColor=none;align=center;verticalAlign=middle;whiteSpace=wrap;rounded=0;" vertex="1" parent="1">
          <mxGeometry x="222" y="351" width="60" height="30" as="geometry" />
        </mxCell>
        <mxCell id="TSLGlhMcsG2Oh3ILdl1S-28" value="Grafana Loki" style="text;html=1;strokeColor=none;fillColor=none;align=center;verticalAlign=middle;whiteSpace=wrap;rounded=0;" vertex="1" parent="1">
          <mxGeometry x="320" y="410" width="90" height="30" as="geometry" />
        </mxCell>
        <mxCell id="TSLGlhMcsG2Oh3ILdl1S-29" value="" style="image;aspect=fixed;html=1;points=[];align=center;fontSize=12;image=img/lib/azure2/other/API_Proxy.svg;" vertex="1" parent="1">
          <mxGeometry x="221" y="217" width="68" height="38" as="geometry" />
        </mxCell>
        <mxCell id="TSLGlhMcsG2Oh3ILdl1S-31" value="" style="verticalLabelPosition=bottom;shadow=0;dashed=0;align=center;html=1;verticalAlign=top;strokeWidth=1;shape=mxgraph.mockup.graphics.pieChart;strokeColor=#008cff;parts=10,20,35;partColors=#e0e0e0,#d0d0d0,#c0c0c0,#b0b0b0,#a0a0a0;strokeWidth=2;" vertex="1" parent="1">
          <mxGeometry x="385" y="132" width="50" height="48" as="geometry" />
        </mxCell>
        <mxCell id="TSLGlhMcsG2Oh3ILdl1S-32" value="Darstellungen und Warnmenldungen nach Jobs und/oder Instance" style="text;html=1;strokeColor=none;fillColor=none;align=center;verticalAlign=middle;whiteSpace=wrap;rounded=0;" vertex="1" parent="1">
          <mxGeometry x="360" y="365" width="160" height="30" as="geometry" />
        </mxCell>
        <mxCell id="TSLGlhMcsG2Oh3ILdl1S-34" value="Filter 1" style="text;html=1;strokeColor=none;fillColor=none;align=center;verticalAlign=middle;whiteSpace=wrap;rounded=0;" vertex="1" parent="1">
          <mxGeometry x="225" y="166" width="60" height="30" as="geometry" />
        </mxCell>
        <mxCell id="TSLGlhMcsG2Oh3ILdl1S-38" value="Filter 2" style="text;html=1;strokeColor=none;fillColor=none;align=center;verticalAlign=middle;whiteSpace=wrap;rounded=0;" vertex="1" parent="1">
          <mxGeometry x="225" y="253.5" width="60" height="30" as="geometry" />
        </mxCell>
        <mxCell id="TSLGlhMcsG2Oh3ILdl1S-39" value="Filter 3" style="text;html=1;strokeColor=none;fillColor=none;align=center;verticalAlign=middle;whiteSpace=wrap;rounded=0;" vertex="1" parent="1">
          <mxGeometry x="222" y="331" width="60" height="30" as="geometry" />
        </mxCell>
        <mxCell id="TSLGlhMcsG2Oh3ILdl1S-72" value="" style="shadow=0;dashed=0;html=1;strokeColor=none;fillColor=#4495D1;labelPosition=center;verticalLabelPosition=bottom;verticalAlign=top;align=center;outlineConnect=0;shape=mxgraph.veeam.2d.alert;" vertex="1" parent="1">
          <mxGeometry x="456.8" y="136" width="33.2" height="33.2" as="geometry" />
        </mxCell>
        <mxCell id="TSLGlhMcsG2Oh3ILdl1S-73" value="" style="shadow=0;dashed=0;html=1;strokeColor=none;fillColor=#4495D1;labelPosition=center;verticalLabelPosition=bottom;verticalAlign=top;align=center;outlineConnect=0;shape=mxgraph.veeam.2d.alert;" vertex="1" parent="1">
          <mxGeometry x="456.8" y="301.88" width="33.2" height="33.2" as="geometry" />
        </mxCell>
        <mxCell id="TSLGlhMcsG2Oh3ILdl1S-74" value="" style="shadow=0;dashed=0;html=1;strokeColor=none;fillColor=#4495D1;labelPosition=center;verticalLabelPosition=bottom;verticalAlign=top;align=center;outlineConnect=0;shape=mxgraph.veeam.2d.alert;" vertex="1" parent="1">
          <mxGeometry x="456.8" y="219.39999999999998" width="33.2" height="33.2" as="geometry" />
        </mxCell>
        <mxCell id="TSLGlhMcsG2Oh3ILdl1S-76" value="" style="rounded=0;whiteSpace=wrap;html=1;fillColor=none;" vertex="1" parent="1">
          <mxGeometry x="370" y="116" width="140" height="80" as="geometry" />
        </mxCell>
        <mxCell id="TSLGlhMcsG2Oh3ILdl1S-81" value="" style="verticalLabelPosition=bottom;shadow=0;dashed=0;align=center;html=1;verticalAlign=top;strokeWidth=1;shape=mxgraph.mockup.graphics.barChart;strokeColor=none;strokeColor2=none;strokeColor3=#666666;fillColor2=#008cff;fillColor3=#dddddd;" vertex="1" parent="1">
          <mxGeometry x="385" y="211" width="50" height="50" as="geometry" />
        </mxCell>
        <mxCell id="TSLGlhMcsG2Oh3ILdl1S-109" value="" style="image;aspect=fixed;html=1;points=[];align=center;fontSize=12;image=img/lib/azure2/general/Table.svg;" vertex="1" parent="1">
          <mxGeometry x="385" y="300" width="51.69" height="42" as="geometry" />
        </mxCell>
      </root>
    </mxGraphModel>
  </diagram>
</mxfile>
